<?xml version="1.0" encoding="UTF-8"?>
<svg xmlns="http://www.w3.org/2000/svg" width="1600" height="900" viewBox="0 0 1600 900">
  <defs>
    <pattern id="grid" width="32" height="32" patternUnits="userSpaceOnUse">
      <path d="M 32 0 L 0 0 0 32" fill="none" stroke="#d6cbb3" stroke-width="1"/>
    </pattern>
  </defs>
  <rect width="1600" height="900" fill="#efe6d4"/>
  <rect width="1600" height="900" fill="url(#grid)"/>
  <rect x="36" y="36" width="1528" height="828" fill="none" stroke="#1d2118" stroke-width="3"/>
  <rect x="36" y="36" width="1528" height="64" fill="#1d2118"/>
  <text x="60" y="78" font-family="DejaVu Sans, sans-serif" font-size="26" fill="#F2C14E" font-weight="700">AP-1-ASM-001  ·  Figure 3 — Slide ram P-03 into column bore</text>
  <text x="1480" y="78" text-anchor="end" font-family="DejaVu Sans, sans-serif" font-size="18" fill="#efe6d4">REV A</text>
  
    <rect x="700" y="240" width="150" height="460" fill="#8d9278" stroke="#1d2118" stroke-width="3"/>
    <rect x="730" y="200" width="90" height="420" fill="#c9c2ab" stroke="#1d2118" stroke-width="3"/>
    <path d="M730 240 l90 0 l0 280 l-18 0 l-10 16 l-16 0 l-10 -16 l-18 0 z" fill="#6f745c"/>
    <line x1="775" y1="180" x2="775" y2="240" stroke="#c45c26" stroke-width="3" stroke-dasharray="8 6"/>
    
    <g>
      <circle cx="920" cy="300" r="16" fill="#efe6d4" stroke="#1d2118" stroke-width="2"/>
      <text x="920" y="304" text-anchor="middle" font-family="DejaVu Sans, sans-serif" font-size="11" font-weight="700" fill="#1d2118">P-03</text>
    </g>
    
    <g>
      <circle cx="640" cy="420" r="16" fill="#efe6d4" stroke="#1d2118" stroke-width="2"/>
      <text x="640" y="424" text-anchor="middle" font-family="DejaVu Sans, sans-serif" font-size="11" font-weight="700" fill="#1d2118">P-02</text>
    </g>
    <text x="980" y="360" font-family="DejaVu Sans, sans-serif" font-size="20" fill="#1d2118">Oil rack teeth lightly</text>
    <text x="980" y="396" font-family="DejaVu Sans, sans-serif" font-size="20" fill="#1d2118">Rack must show in pinion window</text>
    
  <text x="60" y="840" font-family="DejaVu Sans, sans-serif" font-size="16" fill="#4a5340">Source-faithful illustration. Do not substitute hardware.</text>
</svg>